<svg width="20" height="19" viewBox="0 0 20 19" fill="none" xmlns="http://www.w3.org/2000/svg">
<path fill-rule="evenodd" clip-rule="evenodd" d="M18 4C19.11 4 20 4.89 20 6V17C20 18.11 19.11 19 18 19H2C0.89 19 0 18.11 0 17L0.01 6C0.01 4.89 0.89 4 2 4H6V2C6 0.89 6.89 0 8 0H12C13.11 0 14 0.89 14 2V4H18ZM12 4V2H8V4H12ZM9 13V12H11C12.1046 12 13 11.1046 13 10C13 8.89543 12.1046 8 11 8H7V9H8V11H7V12H8V13H7V14H8V16H9V14H12V13H9ZM9 9H11C11.5523 9 12 9.44771 12 10C12 10.5523 11.5523 11 11 11H9V9Z" fill="#C7C7D1"/>
</svg>
