<svg width="20" height="18" viewBox="0 0 20 18" fill="none" xmlns="http://www.w3.org/2000/svg">
<path fill-rule="evenodd" clip-rule="evenodd" d="M7 3C7 4.65685 9.68629 6 13 6C16.3137 6 19 4.65685 19 3C19 1.34315 16.3137 0 13 0C9.68629 0 7 1.34315 7 3ZM5.99995 8C2.95423 8 0 6.88764 0 4.99732C0 3.10699 2.95423 2 5.99995 2C6.00759 2 6.00314 3.18551 5.99819 4.5026L5.99819 4.50282V4.50287V4.50295V4.50307V4.50311C5.992 6.14894 5.98505 8 5.99995 8ZM13.038 11C15.686 10.9931 18.4829 10.2406 19.0018 9V11.2552C19.0018 12.7711 16.0475 14 13.0018 14V13.9976C13.0012 13.9992 13.0006 14 13 14C9.95423 14 7 12.7711 7 11.2552V9C7.52122 10.2462 10.3795 11 13.038 11V11ZM19.0018 5C18.4829 6.24057 15.686 6.99314 13.038 6.99995V7C10.3795 7 7.52122 6.24623 7 5V7.2552C7 8.77114 9.95423 10 13 10C13.0004 10 13.0008 9.99962 13.0012 9.99887L13.0018 9.99757V10C16.0475 10 19.0018 8.77114 19.0018 7.2552V5ZM13.038 18C9.99232 18 7 16.7711 7 15.2552V13C7.52122 14.2462 10.3795 15 13.038 15C15.686 14.9931 18.4829 14.2406 19.0018 13V15.2552C19.0018 16.7651 16.0709 17.9902 13.038 18V18ZM0 13.2552C0 14.7711 2.95423 16 5.99995 16C5.98846 16 5.99426 14.7341 5.99806 13.9053V13.9052V13.9052L5.99806 13.9049C5.9999 13.5017 6.00128 13.202 5.99995 13.202C3.34137 13.202 0.521224 12.2462 0 11V13.2552ZM5.99995 12C2.95423 12 0 10.7711 0 9.2552V7C0.521224 8.24623 3.34137 9.20203 5.99995 9.20203C6.00128 9.20203 5.9999 9.50172 5.99806 9.90494L5.99806 9.90521V9.90523C5.99426 10.7341 5.98846 12 5.99995 12Z" fill="#787891"/>
</svg>
